<?xml version="1.0" standalone="no"?>
<!DOCTYPE svg PUBLIC "-//W3C//DTD SVG 20010904//EN"
 "http://www.w3.org/TR/2001/REC-SVG-20010904/DTD/svg10.dtd">
<svg version="1.0" xmlns="http://www.w3.org/2000/svg"
 width="674.000000pt" height="674.000000pt" viewBox="0 0 674.000000 674.000000"
 preserveAspectRatio="xMidYMid meet">
<metadata>
Created by potrace 1.14, written by Peter Selinger 2001-2017
</metadata>
<g transform="translate(0.000000,674.000000) scale(0.100000,-0.100000)"
fill="#000000" stroke="none">
<path d="M3485 5053 c-11 -8 -40 -25 -65 -37 -59 -30 -122 -65 -139 -80 -8 -6
-17 -10 -20 -10 -9 2 -35 -8 -41 -16 -4 -5 -160 -90 -385 -210 -44 -23 -100
-54 -125 -68 -44 -24 -166 -90 -225 -120 -16 -8 -33 -20 -37 -26 -4 -6 -8 -7
-8 -2 0 5 -6 4 -13 -3 -8 -6 -49 -29 -93 -52 -43 -23 -85 -46 -91 -51 -7 -6
-13 -7 -13 -2 0 5 -4 4 -8 -2 -4 -5 -23 -18 -42 -28 -19 -9 -57 -30 -85 -45
-27 -15 -75 -41 -105 -56 -30 -16 -57 -31 -60 -34 -3 -4 -36 -22 -75 -43 -51
-26 -70 -42 -70 -56 0 -11 -3 -23 -7 -27 -4 -4 -4 -13 -2 -20 3 -7 6 -93 7
-191 l2 -178 45 -26 c54 -31 216 -119 247 -134 13 -6 23 -14 23 -18 0 -5 8 -8
18 -8 10 0 22 -4 28 -10 5 -5 34 -22 64 -38 108 -56 215 -115 220 -121 3 -3
10 -7 16 -8 7 -1 34 -15 60 -31 27 -16 96 -53 154 -83 58 -30 107 -56 110 -60
3 -3 34 -20 70 -39 90 -46 102 -53 123 -69 9 -8 17 -11 17 -6 0 4 6 3 13 -3
14 -11 48 -31 162 -92 44 -23 86 -47 93 -52 6 -6 12 -7 12 -2 0 5 4 4 8 -2 4
-5 32 -23 62 -38 30 -16 58 -33 61 -38 3 -5 9 -9 13 -9 3 1 29 -10 57 -25 28
-14 52 -24 54 -22 8 8 11 89 4 94 -4 2 -6 11 -3 18 9 23 10 97 2 102 -5 3 -6
10 -3 15 8 12 12 99 5 99 -3 0 -4 39 -3 88 1 81 0 88 -20 98 -19 9 -262 135
-367 191 -19 10 -37 21 -38 26 -2 4 -7 5 -12 2 -5 -3 -14 0 -22 7 -7 7 -80 48
-163 90 -82 42 -188 97 -235 123 -47 25 -110 57 -140 72 -30 14 -56 30 -58 35
-2 4 -12 8 -23 8 -10 0 -19 4 -19 8 0 5 -16 14 -35 22 -19 8 -35 18 -35 22 0
5 -4 6 -10 3 -5 -3 -10 -1 -10 4 0 6 -7 11 -16 11 -27 0 -1 23 63 56 32 16 61
33 64 37 3 5 8 8 10 7 5 -2 62 23 69 30 8 9 64 34 73 32 4 -1 7 2 7 7 0 5 21
18 48 30 45 21 105 52 322 168 52 28 148 78 214 112 266 139 312 164 325 177
15 14 20 162 6 183 -3 6 -2 11 3 11 5 0 6 16 2 38 -3 20 -3 49 1 63 3 15 3 33
-2 40 -4 7 -5 17 -2 22 8 12 9 107 1 107 -3 0 -4 8 -1 19 7 26 -8 32 -32 14z"/>
<path d="M3779 5059 c-1 -8 -2 -96 -3 -196 l-1 -183 130 -1 c71 -1 144 0 160
1 17 0 41 -3 55 -8 24 -9 24 -9 3 -20 -11 -6 -46 -12 -77 -13 -31 -1 -56 -4
-56 -6 0 -5 41 -65 50 -73 17 -16 100 -132 100 -140 0 -6 4 -10 8 -10 5 0 24
-21 42 -47 19 -27 37 -50 40 -53 3 -3 23 -30 45 -60 38 -53 61 -77 78 -79 4 0
21 -8 38 -17 54 -28 202 -72 264 -79 127 -15 163 -20 388 -62 15 -3 27 -8 27
-12 0 -4 10 -8 22 -8 13 -1 32 -6 43 -12 20 -9 42 -17 60 -20 16 -4 85 -44 85
-50 0 -9 -68 -51 -87 -54 -10 -1 -24 -6 -30 -10 -7 -5 -13 -6 -13 -3 0 3 -19
-2 -42 -10 -24 -9 -50 -17 -58 -19 -8 -2 -30 -8 -48 -14 -18 -5 -35 -10 -37
-10 -3 -1 -6 -1 -7 -2 -26 -8 -74 -15 -163 -23 -33 -4 -72 -9 -87 -11 -16 -3
-40 -7 -55 -9 -35 -5 -94 -26 -110 -39 -7 -5 -13 -6 -13 -3 0 4 -8 2 -18 -3
-11 -6 -30 -13 -43 -16 -13 -3 -70 -16 -126 -29 -106 -25 -146 -33 -223 -42
-25 -3 -63 -9 -84 -14 -22 -5 -44 -7 -48 -4 -4 3 -8 0 -8 -5 0 -6 6 -11 13
-12 6 0 19 -2 28 -4 25 -5 130 -17 177 -20 24 -2 46 -6 49 -8 5 -6 -173 -247
-191 -259 -6 -4 -7 -8 -2 -8 5 0 -1 -8 -12 -19 -12 -10 -22 -22 -22 -25 0 -4
-7 -14 -15 -22 -22 -22 -19 -31 13 -33 15 -1 41 -3 57 -5 17 -2 38 -4 48 -5
28 -2 20 -19 -12 -26 -17 -3 -98 -7 -180 -7 -103 -1 -151 -4 -152 -12 -3 -27
-5 -362 -2 -368 2 -3 40 14 86 39 156 86 182 101 267 146 47 25 105 56 130 70
25 14 74 40 110 59 71 38 408 222 505 275 33 19 72 38 88 44 15 6 27 15 27 20
0 5 9 9 20 9 11 0 20 3 20 8 0 4 24 18 53 31 28 13 54 27 57 30 3 3 37 22 75
42 39 20 93 49 120 64 28 15 78 43 113 62 36 20 62 41 63 51 1 9 2 108 3 219
l1 203 -80 41 c-44 23 -84 45 -90 49 -10 7 -80 45 -270 145 -116 62 -129 69
-135 75 -3 3 -34 20 -70 38 -71 37 -196 103 -275 147 -27 15 -72 40 -100 55
-27 15 -79 43 -115 62 -274 147 -312 168 -327 180 -7 6 -13 7 -13 2 0 -5 -4
-4 -8 1 -4 6 -34 24 -67 42 -33 17 -82 43 -109 57 -27 14 -55 31 -62 37 -11 9
-14 8 -15 -2z"/>
<path d="M4673 4012 c-36 -24 -50 -112 -27 -164 15 -33 24 -41 44 -40 19 1
130 13 150 17 85 13 106 18 115 26 5 5 16 9 25 9 21 0 56 31 54 48 -1 6 -2 16
-3 20 -3 26 -149 67 -271 78 -30 3 -60 6 -66 8 -6 3 -15 1 -21 -2z"/>
<path d="M622 2219 c-15 -3 -36 -5 -45 -3 -9 1 -33 -12 -53 -30 -30 -26 -37
-39 -39 -72 -1 -22 -4 -44 -7 -50 -3 -5 1 -30 8 -56 20 -67 57 -90 146 -93 38
-2 72 -5 75 -8 9 -10 12 -71 3 -86 -6 -11 -32 -15 -111 -15 l-104 -1 -2 -48
c-2 -57 4 -59 127 -56 25 1 64 2 88 2 23 0 42 3 42 6 0 4 13 12 29 19 68 30
77 197 14 260 -7 7 -13 10 -13 6 0 -3 -6 -1 -14 5 -8 7 -36 14 -63 16 -26 2
-50 5 -53 5 -3 1 -14 3 -25 4 -20 1 -35 38 -27 69 5 18 6 18 147 21 l70 1 2
40 c1 23 -2 47 -6 54 -9 14 -136 21 -189 10z"/>
<path d="M1014 2215 c-3 -6 -3 -123 -2 -260 l3 -250 55 0 55 0 2 55 c1 30 2
72 2 93 l1 38 47 -3 47 -3 30 -90 31 -90 55 0 c59 0 64 7 41 60 -5 11 -17 40
-26 65 -9 25 -23 52 -31 61 -13 14 -12 18 10 32 26 17 51 79 42 102 -3 8 -1
15 4 15 8 0 8 9 -5 86 -7 43 -51 80 -105 89 -70 12 -252 11 -256 0z m244 -162
l3 -63 -65 0 -64 0 -4 51 c-1 28 0 56 4 62 4 8 30 12 65 12 l58 0 3 -62z"/>
<path d="M1598 2222 l-27 -3 -1 -254 c0 -158 3 -256 9 -260 11 -6 86 -7 154
-2 20 1 37 0 37 -3 0 -9 95 2 108 12 11 10 15 72 4 91 -2 4 -10 3 -18 -4 -8
-6 -14 -7 -14 -2 0 5 -36 8 -80 8 -74 -1 -80 0 -81 19 0 12 -2 34 -3 49 -1 16
2 31 6 33 5 3 42 5 83 5 48 0 77 4 82 12 11 17 13 70 3 82 -5 6 -45 10 -89 9
-88 -1 -83 -5 -83 61 0 14 0 28 1 33 1 4 44 7 96 7 52 0 95 3 96 7 5 35 2 88
-4 88 -5 0 -6 3 -4 8 5 7 -220 10 -275 4z"/>
<path d="M2088 2222 c-21 -3 -28 -9 -28 -25 -1 -37 -1 -409 0 -454 l0 -43 78
2 c43 1 84 -2 90 -6 6 -3 13 -2 16 3 3 5 21 5 42 1 21 -5 48 -4 64 1 24 9 27
15 26 50 -1 22 -8 44 -15 49 -7 4 -49 6 -93 5 -72 -3 -80 -1 -87 17 -4 12 -6
30 -5 42 1 11 3 27 3 34 1 8 24 12 79 12 42 0 82 4 87 8 15 10 12 81 -3 91 -6
4 -42 6 -79 5 -71 -3 -93 6 -88 34 2 9 4 28 4 42 1 25 2 25 84 25 45 -1 88 1
95 3 7 3 12 23 12 53 0 42 -3 49 -20 50 -93 3 -240 3 -262 1z"/>
<path d="M2765 2220 c-5 -9 8 -83 70 -387 3 -15 8 -39 11 -53 16 -85 6 -78 97
-75 45 1 92 5 104 10 21 7 46 52 49 88 1 9 2 18 4 20 2 2 5 17 13 57 3 14 12
54 22 89 9 35 18 80 21 99 2 20 8 39 12 42 4 3 8 16 9 30 1 14 4 39 6 55 5 29
4 30 -32 28 -20 -1 -43 -2 -52 -2 -16 -1 -26 -25 -36 -86 -2 -16 -9 -48 -15
-70 -7 -22 -12 -43 -14 -47 -1 -5 -3 -11 -4 -15 -1 -5 -2 -11 -1 -15 0 -4 -5
-35 -13 -68 -8 -33 -15 -63 -15 -65 -1 -3 -2 -7 -2 -10 -1 -3 -2 -11 -3 -17
-1 -18 -46 -23 -47 -6 -1 7 -3 22 -5 33 -2 11 -6 31 -8 45 -2 14 -7 39 -11 55
-16 74 -19 91 -19 113 -1 12 -3 22 -6 22 -3 0 -7 12 -8 28 -7 89 -19 106 -77
106 -26 1 -48 -1 -50 -4z"/>
<path d="M3467 2217 c-51 -12 -83 -73 -100 -188 -2 -8 -6 -20 -10 -26 -5 -7
-6 -13 -3 -13 3 0 -1 -18 -9 -40 -8 -22 -12 -40 -10 -40 3 0 0 -12 -6 -27 -6
-16 -12 -37 -14 -48 -4 -26 -11 -54 -23 -97 l-10 -35 54 -2 53 -1 10 37 c6 21
11 46 11 55 0 22 19 26 107 27 l71 0 14 -57 c11 -42 19 -57 31 -56 9 1 17 -1
17 -5 0 -11 64 0 72 12 4 6 4 16 0 21 -3 6 -7 17 -8 26 -2 15 -9 55 -19 100
-3 14 -8 36 -10 50 -6 30 -13 63 -15 70 -1 3 -3 10 -5 15 -1 6 -3 12 -4 15 -1
3 -4 21 -6 40 -3 19 -7 46 -10 60 -14 59 -17 76 -18 85 0 6 -5 15 -11 20 -14
12 -101 13 -149 2z m64 -111 c0 -6 2 -18 4 -26 22 -83 31 -147 25 -155 -9 -11
-56 -13 -66 -2 -4 3 -15 2 -25 -3 -26 -15 -27 3 -4 94 23 92 28 103 50 103 8
0 15 -5 16 -11z"/>
<path d="M3857 2222 c-10 -2 -17 -7 -18 -10 -7 -66 -4 -84 15 -92 12 -4 38 -6
58 -5 21 2 38 -2 40 -8 2 -7 4 -100 3 -208 -1 -129 3 -196 10 -196 5 0 15 -2
20 -3 6 -1 26 -2 46 -1 43 1 39 -19 41 224 0 128 4 187 12 188 6 1 27 3 46 4
19 1 42 3 51 4 12 1 15 11 12 48 -2 26 -5 49 -7 51 -5 4 -308 8 -329 4z"/>
<path d="M4420 2217 c-30 -13 -79 -62 -81 -79 -7 -65 -3 -330 5 -356 14 -47
56 -74 121 -77 30 -2 58 -6 64 -9 5 -4 12 -2 15 2 3 5 17 7 31 5 13 -3 35 -3
48 1 19 4 23 12 22 43 0 21 -3 43 -7 49 -5 8 -39 11 -93 10 -50 -1 -86 3 -87
9 0 5 -2 74 -3 153 l-2 142 26 1 c79 2 157 6 161 7 7 2 7 102 0 103 -37 5
-160 2 -160 -4 0 -4 -8 -4 -17 1 -11 6 -27 5 -43 -1z"/>
<path d="M4820 2218 c0 -5 -4 -7 -9 -4 -5 3 -8 -11 -7 -32 2 -20 -1 -45 -6
-54 -5 -10 -5 -18 -1 -18 10 0 9 -172 -1 -188 -4 -7 -4 -12 1 -12 4 0 8 -47 7
-103 l0 -104 58 -1 c33 0 56 3 53 9 -4 5 -2 9 3 9 9 0 8 77 -1 87 -3 3 -2 16
3 29 6 14 6 34 0 48 -11 29 -1 33 90 32 l65 -1 0 -93 c0 -50 3 -92 8 -92 4 0
7 -6 7 -14 0 -11 14 -15 53 -15 l53 0 1 37 c1 20 1 48 2 62 1 14 0 48 -2 75
-1 28 1 60 5 73 4 12 4 22 0 22 -4 0 -7 38 -7 85 0 47 4 85 8 85 5 0 5 6 0 13
-4 6 -7 22 -8 34 0 12 -3 24 -6 28 -8 7 -98 9 -106 2 -3 -3 -5 -49 -4 -102 2
-95 1 -96 -21 -95 -13 1 -25 1 -28 0 -16 -6 -78 -5 -92 2 -15 7 -17 21 -15 89
3 95 -8 114 -65 115 -21 0 -38 -3 -38 -8z"/>
<path d="M5543 2220 c-2 -3 -8 -5 -11 -5 -29 0 -66 -56 -76 -115 -3 -14 -5
-25 -7 -25 -1 0 -3 -9 -5 -20 -6 -36 -9 -50 -17 -62 -5 -7 -6 -13 -2 -13 3 0
1 -9 -4 -19 -6 -10 -13 -34 -15 -52 -3 -19 -10 -52 -16 -74 -6 -22 -13 -48
-15 -58 -2 -10 -7 -28 -11 -39 -8 -26 10 -38 58 -38 36 0 43 8 54 53 1 4 3 9
4 12 4 7 7 23 9 38 1 9 24 13 86 14 95 1 95 1 107 -104 1 -14 10 -16 48 -13
14 1 33 3 43 4 9 0 18 4 18 9 3 15 -12 111 -18 121 -4 5 -8 19 -9 30 -2 24
-10 70 -19 106 -8 35 -25 120 -31 150 -2 14 -9 43 -15 65 l-10 40 -70 0 c-39
0 -73 -2 -76 -5z m77 -190 c6 -36 14 -75 17 -87 5 -22 2 -23 -56 -23 l-62 0 5
33 c2 17 5 32 6 32 2 0 4 9 6 20 10 72 23 103 42 107 23 5 28 -6 42 -82z"/>
<path d="M5949 2190 c-1 -19 -1 -136 -1 -259 0 -174 3 -225 13 -232 7 -4 18
-5 23 -1 6 3 23 5 37 4 26 -2 27 -1 27 50 1 197 3 249 12 243 5 -3 51 -67 101
-143 51 -75 97 -140 103 -145 6 -4 27 -6 46 -5 l35 3 0 255 0 255 -36 6 c-63
10 -64 8 -64 -138 0 -73 -2 -141 -6 -150 -5 -15 -8 -14 -19 7 -7 14 -16 27
-19 30 -6 4 -66 92 -96 141 -44 70 -75 114 -80 112 -3 -2 -6 -3 -7 -2 -2 0
-18 1 -36 2 -30 2 -32 0 -33 -33z"/>
</g>
</svg>
